Coordinates
version=1
nRows=27
nColumns=12
inDegrees=yes

Units are S.I. units (second, meters, Newtons, ...)
Angles are in degrees

endheader
time	SC_y	SC_z	SC_x	AC_y	AC_z	AC_x	GH_y	GH_z	GH_yy	EL_x	PS_y
       0.0              -29.96          36.08          52.37          36.29          -6.32          2.075          58.38          82.72         -127.9          85.52          43.74
   0.01223              -29.96          36.08          52.37          36.29          -6.32          2.072          58.38          82.71         -127.9          85.52          43.75
   0.02445              -29.96          36.08          52.38          36.29          -6.32          2.068          58.37           82.7         -127.9          85.51          43.76
   0.03668              -29.96          36.08          52.38          36.29         -6.321          2.065          58.37          82.68         -127.9           85.5          43.77
   0.04891              -29.96          36.08          52.39          36.29         -6.321          2.061          58.36          82.67         -127.9          85.49          43.78
   0.06113              -29.96          36.08          52.39           36.3         -6.321          2.057          58.36          82.65         -127.8          85.48          43.79
   0.07336              -29.96          36.08           52.4           36.3         -6.321          2.053          58.36          82.63         -127.8          85.47           43.8
   0.08559              -29.96          36.08          52.41           36.3         -6.322          2.049          58.35          82.62         -127.8          85.45          43.81
   0.09782              -29.97          36.08          52.41          36.31         -6.322          2.044          58.35           82.6         -127.8          85.44          43.83
      0.11              -29.97          36.08          52.42          36.31         -6.322          2.039          58.34          82.57         -127.8          85.43          43.84
    0.1223              -29.97          36.08          52.43          36.31         -6.323          2.033          58.33          82.55         -127.8          85.41          43.86
    0.1345              -29.97          36.08          52.44          36.32         -6.323          2.028          58.33          82.53         -127.8          85.39          43.88
    0.1467              -29.97          36.08          52.45          36.32         -6.323          2.021          58.32           82.5         -127.7          85.38          43.89
     0.159              -29.98          36.08          52.46          36.33         -6.324          2.014          58.31          82.47         -127.7          85.36          43.91
    0.1712              -29.98          36.08          52.47          36.33         -6.324          2.007           58.3          82.44         -127.7          85.34          43.94
    0.1834              -29.98          36.08          52.48          36.34         -6.325          1.999          58.29           82.4         -127.7          85.32          43.96
    0.1956              -29.98          36.08           52.5          36.34         -6.325           1.99          58.28          82.37         -127.6          85.29          43.98
    0.2079              -29.99          36.08          52.51          36.35         -6.326           1.98          58.27          82.33         -127.6          85.27          44.01
    0.2201              -29.99          36.08          52.53          36.35         -6.326           1.97          58.26          82.28         -127.6          85.24          44.04
    0.2323               -30.0          36.08          52.55          36.36         -6.327          1.958          58.25          82.24         -127.5          85.21          44.07
    0.2445               -30.0          36.08          52.56          36.37         -6.328          1.946          58.23          82.18         -127.5          85.17          44.11
    0.2568               -30.0          36.08          52.59          36.38         -6.329          1.932          58.22          82.12         -127.5          85.13          44.15
     0.269              -30.01          36.08          52.61          36.39          -6.33          1.917           58.2          82.06         -127.4          85.09           44.2
    0.2812              -30.02          36.08          52.64           36.4         -6.331            1.9          58.18          81.99         -127.4          85.04          44.24
    0.2934              -30.02          36.08          52.66          36.41         -6.332          1.881          58.16          81.91         -127.3          84.99           44.3
    0.3057              -30.03          36.08           52.7          36.43         -6.333           1.86          58.14          81.82         -127.2          84.94          44.36
    0.3179              -30.04          36.08          52.73          36.44         -6.334          1.837          58.11          81.72         -127.2          84.87          44.43
